<?xml version="1.0" encoding="UTF-8"?>
<svg version="1.1" xmlns="http://www.w3.org/2000/svg" width="237" height="300">
<path d="M0 0 C8.66533326 6.43710471 16.0945784 13.20687013 21.625 22.5625 C21.9859375 23.17222656 22.346875 23.78195313 22.71875 24.41015625 C29.25940905 38.18793342 22.7138525 54.51787308 18.125 67.75 C17.5161335 69.5702639 16.90935387 71.3912272 16.3046875 73.21289062 C6.29803763 103.10653964 -2.08497231 126.58926923 -28.05615234 145.82861328 C-31.9568335 148.74529444 -35.78838921 151.74985127 -39.625 154.75 C-46.85197883 160.38443481 -54.10292582 165.98638658 -61.375 171.5625 C-69.71890022 168.00696222 -72.76055302 157.9082779 -75.96435547 150.03320312 C-78.32647989 144.00304266 -80.08984184 137.91485321 -81.375 131.5625 C-80.46363281 131.18480469 -79.55226562 130.80710938 -78.61328125 130.41796875 C-75.01883127 128.90704616 -71.46690868 127.31033687 -67.91796875 125.69580078 C-66.16770317 124.91577651 -64.40638732 124.16023557 -62.63671875 123.42529297 C-50.44483598 118.79696181 -50.44483598 118.79696181 -41.96484375 109.56640625 C-38.89219485 100.96065345 -38.9472461 91.58816368 -38.375 82.5625 C-38.97190643 82.75042114 -39.56881287 82.93834229 -40.18380737 83.13195801 C-46.37911795 85.08178635 -52.57566255 87.0276532 -58.77294922 88.97119141 C-61.08772367 89.69770747 -63.40217816 90.42524379 -65.71630859 91.15380859 C-69.03660455 92.19895529 -72.35802211 93.24046508 -75.6796875 94.28125 C-76.71930634 94.60935669 -77.75892517 94.93746338 -78.83004761 95.2755127 C-79.79089264 95.57582397 -80.75173767 95.87613525 -81.74169922 96.18554688 C-82.58997284 96.45202026 -83.43824646 96.71849365 -84.31222534 96.99304199 C-86.375 97.5625 -86.375 97.5625 -88.375 97.5625 C-89.04404446 75.97962132 -89.04404446 75.97962132 -82.4375 67.375 C-70.69489967 55.06973341 -49.17127796 52.12997374 -32.91177368 51.46118164 C-26.58677181 51.32206727 -20.26317349 51.37880076 -13.9375 51.4375 C-12.03060371 51.44755935 -10.12370222 51.45667993 -8.21679688 51.46484375 C-3.60273336 51.48660132 1.01107389 51.52096476 5.625 51.5625 C5.32933426 49.97039567 5.0273151 48.37947044 4.72265625 46.7890625 C4.55515869 45.90299316 4.38766113 45.01692383 4.21508789 44.10400391 C2.37348993 36.17225596 -2.97963229 31.2066042 -9.375 26.5625 C-17.29414537 22.46533879 -25.44984978 20.3741098 -34.1875 18.875 C-35.36256104 18.66786377 -36.53762207 18.46072754 -37.74829102 18.24731445 C-53.83290374 15.51608797 -69.75654708 14.41027357 -86.0625 14.25 C-87.208396 14.23219482 -88.35429199 14.21438965 -89.53491211 14.19604492 C-104.71941757 14.21042314 -119.36791623 18.63043288 -130.75 29 C-142.49711443 41.65819426 -146.08984636 56.96050689 -145.75390625 73.71875 C-145.29211951 83.58344156 -142.89333589 93.05102964 -140.375 102.5625 C-140.15569824 103.41166992 -139.93639648 104.26083984 -139.71044922 105.13574219 C-132.43284353 132.83970631 -119.4311646 167.83565889 -96.375 186.5625 C-95.06350692 187.27116644 -93.73474835 187.95151175 -92.375 188.5625 C-92.375 189.2225 -92.375 189.8825 -92.375 190.5625 C-105.37357076 193.37300178 -118.12191141 191.15267995 -129.58203125 184.48828125 C-135.03930729 180.72543218 -139.69371003 176.22398197 -144.375 171.5625 C-145.07238281 170.89992187 -145.76976562 170.23734375 -146.48828125 169.5546875 C-178.18727294 137.1337726 -198.09781124 76.72267563 -210.375 34.5625 C-210.57818848 33.89790771 -210.78137695 33.23331543 -210.99072266 32.54858398 C-214.68589386 19.50690005 -213.71065747 3.94758571 -208.375 -8.4375 C-208.04757813 -9.28957031 -207.72015625 -10.14164063 -207.3828125 -11.01953125 C-201.20330348 -25.34065616 -188.03028541 -35.16519442 -174.2109375 -41.39453125 C-130.44408369 -57.49060559 -36.91979289 -24.65088775 0 0 Z " fill="#070403" transform="translate(212.375,44.4375)"/>
<path d="M0 0 C4.95 0 9.9 0 15 0 C15.33 10.23 15.66 20.46 16 31 C17.98 31.66 19.96 32.32 22 33 C22.99 32.34 23.98 31.68 25 31 C25.51254128 27.7998894 25.51254128 27.7998894 25.51171875 24.0234375 C25.52966995 23.33819 25.54762115 22.6529425 25.56611633 21.94692993 C25.62033708 19.75634941 25.65415053 17.5659881 25.6875 15.375 C25.72066294 13.89059441 25.75515165 12.40621779 25.79101562 10.921875 C25.87857061 7.28121649 25.93853001 3.64156696 26 0 C30.95 0 35.9 0 41 0 C41.06926888 4.26901566 41.12887559 8.53604369 41.16479492 12.80517578 C41.17978417 14.25413661 41.20018271 15.70305283 41.22631836 17.15185547 C41.54267909 35.15340116 41.54267909 35.15340116 36.58276367 40.53881836 C31.54652775 44.98931899 27.12106599 45.20627143 20.6875 45.25 C19.94048828 45.270625 19.19347656 45.29125 18.42382812 45.3125 C13.52652314 45.34689723 10.26026652 44.66506898 6 42 C1.53743349 37.53743349 0.17163766 32.68253049 -0.22705078 26.45141602 C-0.21657715 25.23123779 -0.20610352 24.01105957 -0.1953125 22.75390625 C-0.1924826 22.09792953 -0.18965271 21.44195282 -0.18673706 20.76609802 C-0.17565984 18.69803591 -0.15058063 16.63042827 -0.125 14.5625 C-0.11495402 13.14909485 -0.10583102 11.73568283 -0.09765625 10.32226562 C-0.07747405 6.88120009 -0.03830539 3.44110076 0 0 Z " fill="#070403" transform="translate(43,255)"/>
<path d="M0 0 C5.51531468 5.44445411 7.69180499 11.17838186 8.3125 18.875 C8.03605186 26.8305632 5.12583585 32.48107593 -0.0859375 38.37109375 C-4.47026995 42.10225014 -8.81994785 42.31842848 -14.4375 42.375 C-15.71496094 42.40335937 -16.99242187 42.43171875 -18.30859375 42.4609375 C-24.83254786 41.64630619 -28.77598347 37.70132945 -32.7421875 32.76953125 C-36.88149338 26.94622204 -36.82285376 19.87732515 -36 13 C-33.79564332 5.67948525 -29.73959532 0.63107422 -23 -3 C-15.18016761 -5.53362569 -6.79830467 -4.64052537 0 0 Z M-21 12 C-23.02677578 16.52126904 -22.4399516 21.7727666 -20.8125 26.3125 C-19.18757189 29.08317139 -19.18757189 29.08317139 -16.6875 30.5625 C-13.89863704 31.20018185 -13.89863704 31.20018185 -10.8125 30.1875 C-7.32434317 27.47448913 -6.79827563 25.67824448 -6.1171875 21.41796875 C-5.92518525 17.45632241 -6.58531154 14.72963322 -8 11 C-9.72928883 8.90899372 -9.72928883 8.90899372 -12 8 C-16.70781138 8 -17.70934836 8.79828489 -21 12 Z " fill="#070403" transform="translate(179,258)"/>
<path d="M0 0 C4.27295432 2.54213738 6.85816689 5.57450066 8.4375 10.3125 C8.52231773 12.89880224 8.55348229 15.45728056 8.53515625 18.04296875 C8.5337413 18.79338943 8.53232635 19.54381012 8.53086853 20.31697083 C8.5252756 22.7113546 8.51272444 25.10564453 8.5 27.5 C8.49498408 29.12434761 8.49042134 30.74869668 8.48632812 32.37304688 C8.47530848 36.35290069 8.45804873 40.33268444 8.4375 44.3125 C3.55326718 44.29121794 0.36269458 44.02611907 -3.5859375 40.98046875 C-6.76023389 36.42574784 -6.22744685 30.9612328 -6.1875 25.625 C-6.1875 23.55855273 -6.19995238 21.49205718 -6.2265625 19.42578125 C-6.22092285 18.51610596 -6.2152832 17.60643066 -6.20947266 16.66918945 C-6.38542927 14.26157798 -6.38542927 14.26157798 -7.88818359 12.48120117 C-9.65064954 10.9934723 -9.65064954 10.9934723 -12.6875 11.5 C-14.110625 11.9021875 -14.110625 11.9021875 -15.5625 12.3125 C-17.01212183 15.21174366 -16.78376481 17.83550355 -16.87890625 21.0703125 C-16.89968735 21.73336395 -16.92046844 22.39641541 -16.94187927 23.07955933 C-17.00729231 25.19876694 -17.06622105 27.318099 -17.125 29.4375 C-17.16819309 30.87371081 -17.21180764 32.30990902 -17.25585938 33.74609375 C-17.36375909 37.26810344 -17.46289243 40.79020688 -17.5625 44.3125 C-22.1825 44.3125 -26.8025 44.3125 -31.5625 44.3125 C-31.63165798 39.74038931 -31.69130076 35.17011886 -31.72729492 30.59790039 C-31.74231105 29.0451032 -31.76273028 27.49234791 -31.78881836 25.93969727 C-31.82552073 23.69797376 -31.84229787 21.45681461 -31.85546875 19.21484375 C-31.87095261 18.52913803 -31.88643646 17.84343231 -31.90238953 17.13694763 C-31.9041308 12.06392219 -30.8487403 8.74185461 -28.5625 4.3125 C-21.43187451 -2.81812549 -9.08733212 -4.21120269 0 0 Z " fill="#070403" transform="translate(220.5625,255.6875)"/>
<path d="M0 0 C6.34991093 3.62852053 6.34991093 3.62852053 7.74609375 7.78515625 C8.25056162 9.75779959 8.66318281 11.75341407 9.0625 13.75 C6.77140403 13.83075665 4.47950733 13.88907731 2.1875 13.9375 C0.91132812 13.97230469 -0.36484375 14.00710938 -1.6796875 14.04296875 C-3.29230469 13.89794922 -3.29230469 13.89794922 -4.9375 13.75 C-5.5975 12.76 -6.2575 11.77 -6.9375 10.75 C-10.52107241 10.49984127 -10.52107241 10.49984127 -13.9375 10.75 C-10.85352946 14.88586747 -5.65047139 15.45561578 -0.91796875 16.6796875 C3.96011858 18.06044965 6.71935575 19.74585384 10.0625 23.75 C11.66461022 26.95422044 11.41354181 30.26558502 11.0625 33.75 C9.26347227 38.94719122 6.81184327 41.07849441 2.0625 43.75 C-1.57793263 44.96347754 -4.95805186 44.9724972 -8.75 45 C-9.44931641 45.020625 -10.14863281 45.04125 -10.86914062 45.0625 C-17.31901187 45.11076845 -21.17624298 43.47211797 -25.75 39 C-28.15477982 35.42718427 -28.68213186 33.00613558 -28.9375 28.75 C-24.3175 28.75 -19.6975 28.75 -14.9375 28.75 C-14.2775 30.07 -13.6175 31.39 -12.9375 32.75 C-8.33999903 33.93701 -8.33999903 33.93701 -3.9375 32.75 C-3.6075 31.76 -3.2775 30.77 -2.9375 29.75 C-3.62714844 29.57984375 -4.31679687 29.4096875 -5.02734375 29.234375 C-19.80614716 25.42310608 -19.80614716 25.42310608 -25.5 20.5625 C-27.55411063 16.54358791 -27.68760367 13.17248624 -26.9375 8.75 C-24.77687641 3.97862289 -21.96641802 1.53050169 -17.28125 -0.55859375 C-11.62542766 -2.22706134 -5.51628171 -2.14259011 0 0 Z " fill="#070403" transform="translate(113.9375,255.25)"/>
<path d="M0 0 C1.16660156 0.00322266 2.33320313 0.00644531 3.53515625 0.00976562 C4.75847656 0.01814453 5.98179688 0.02652344 7.2421875 0.03515625 C8.47324219 0.03966797 9.70429688 0.04417969 10.97265625 0.04882812 C14.02085389 0.06064284 17.06902666 0.07857875 20.1171875 0.09765625 C20.1171875 4.05765625 20.1171875 8.01765625 20.1171875 12.09765625 C13.8471875 12.09765625 7.5771875 12.09765625 1.1171875 12.09765625 C1.4471875 13.41765625 1.7771875 14.73765625 2.1171875 16.09765625 C7.0671875 16.09765625 12.0171875 16.09765625 17.1171875 16.09765625 C18.1171875 20.09765625 18.1171875 20.09765625 16.8671875 23.22265625 C15.1171875 26.09765625 15.1171875 26.09765625 12.1171875 28.09765625 C9.41796875 28.29296875 9.41796875 28.29296875 6.4296875 28.22265625 C4.93888672 28.19558594 4.93888672 28.19558594 3.41796875 28.16796875 C2.65871094 28.14476562 1.89945313 28.1215625 1.1171875 28.09765625 C1.16359375 28.83371094 1.21 29.56976563 1.2578125 30.328125 C1.42066015 34.73082767 1.53419642 38.14990871 -0.2578125 42.22265625 C-3.18273 44.31188303 -4.53714875 44.43701405 -8.046875 44.71484375 C-8.95131348 44.7907373 -9.85575195 44.86663086 -10.78759766 44.94482422 C-11.47901855 44.99525879 -12.17043945 45.04569336 -12.8828125 45.09765625 C-13.00662399 39.6350935 -13.09725076 34.17335137 -13.1574707 28.7097168 C-13.18257952 26.85215016 -13.21667384 24.99468198 -13.26000977 23.13745117 C-13.32082374 20.46378267 -13.3490577 17.7914226 -13.37109375 15.1171875 C-13.39690018 14.28991653 -13.4227066 13.46264557 -13.44929504 12.61030579 C-13.45140724 8.24540496 -13.30477736 6.62411662 -10.47729492 3.09643555 C-6.64663067 0.14530651 -4.79352668 -0.02326955 0 0 Z " fill="#070403" transform="translate(20.8828125,254.90234375)"/>
<path d="M0 0 C4.62 0 9.24 0 14 0 C14 14.85 14 29.7 14 45 C9.38 45 4.76 45 0 45 C0 30.15 0 15.3 0 0 Z " fill="#070403" transform="translate(127,255)"/>
</svg>
